HIERARCHY
ROOT joint_Root
{
  OFFSET 0 0 0
  CHANNELS 6 Xposition Yposition Zposition Zrotation Xrotation Yrotation
  JOINT Hips
  {
    OFFSET 0 93.9241 -3
    CHANNELS 6 Xposition Yposition Zposition Zrotation Xrotation Yrotation
    JOINT Spine
    {
      OFFSET 15.7357 0 0
      CHANNELS 6 Xposition Yposition Zposition Zrotation Xrotation Yrotation
      JOINT Chest
      {
        OFFSET 8.98455 -0.406207 0
        CHANNELS 6 Xposition Yposition Zposition Zrotation Xrotation Yrotation
        JOINT Neck
        {
          OFFSET 16.3773 0 0
          CHANNELS 6 Xposition Yposition Zposition Zrotation Xrotation Yrotation
          JOINT Head
          {
            OFFSET 6.45672 0 0
            CHANNELS 6 Xposition Yposition Zposition Zrotation Xrotation Yrotation
            End Site
            {
              OFFSET 0 0 0
            }
          }
        }
        JOINT Shoulder_L
        {
          OFFSET 12.9942 -0.242716 4.98039
          CHANNELS 6 Xposition Yposition Zposition Zrotation Xrotation Yrotation
          JOINT UpperArm_L
          {
            OFFSET 5.34809 0 0
            CHANNELS 6 Xposition Yposition Zposition Zrotation Xrotation Yrotation
            JOINT LowerArm_L
            {
              OFFSET 24.3286 1.87007e-05 0
              CHANNELS 6 Xposition Yposition Zposition Zrotation Xrotation Yrotation
              JOINT Hand_L
              {
                OFFSET 22.2916 0 0
                CHANNELS 6 Xposition Yposition Zposition Zrotation Xrotation Yrotation
                End Site
                {
                  OFFSET 0 0 0
                }
              }
            }
          }
        }
        JOINT Shoulder_R
        {
          OFFSET 12.9945 -0.242716 -4.98039
          CHANNELS 6 Xposition Yposition Zposition Zrotation Xrotation Yrotation
          JOINT UpperArm_R
          {
            OFFSET -5.34813 0 0
            CHANNELS 6 Xposition Yposition Zposition Zrotation Xrotation Yrotation
            JOINT LowerArm_R
            {
              OFFSET -24.3289 0.000322201 0
              CHANNELS 6 Xposition Yposition Zposition Zrotation Xrotation Yrotation
              JOINT Hand_R
              {
                OFFSET -22.2915 -0.000108084 0
                CHANNELS 6 Xposition Yposition Zposition Zrotation Xrotation Yrotation
                End Site
                {
                  OFFSET 0 0 0
                }
              }
            }
          }
        }
      }
    }
    JOINT UpperLeg_L
    {
      OFFSET -2.19248 -6.46944 0
      CHANNELS 6 Xposition Yposition Zposition Zrotation Xrotation Yrotation
      JOINT LowerLeg_L
      {
        OFFSET 39.0811 0 -1.23785e-05
        CHANNELS 6 Xposition Yposition Zposition Zrotation Xrotation Yrotation
        JOINT Foot_L
        {
          OFFSET 40.9854 0 -1.26872e-05
          CHANNELS 6 Xposition Yposition Zposition Zrotation Xrotation Yrotation
          JOINT Toes_L
          {
            OFFSET 11.7543 0 0
            CHANNELS 6 Xposition Yposition Zposition Zrotation Xrotation Yrotation
            End Site
            {
              OFFSET 0 0 0
            }
          }
        }
      }
    }
    JOINT UpperLeg_R
    {
      OFFSET -2.19251 6.46944 0
      CHANNELS 6 Xposition Yposition Zposition Zrotation Xrotation Yrotation
      JOINT LowerLeg_R
      {
        OFFSET -39.0811 -0.00228153 -0.0401928
        CHANNELS 6 Xposition Yposition Zposition Zrotation Xrotation Yrotation
        JOINT Foot_R
        {
          OFFSET -40.9854 0 0
          CHANNELS 6 Xposition Yposition Zposition Zrotation Xrotation Yrotation
          JOINT Toes_R
          {
            OFFSET -11.7543 0 0
            CHANNELS 6 Xposition Yposition Zposition Zrotation Xrotation Yrotation
            End Site
            {
              OFFSET 0 0 0
            }
          }
        }
      }
    }
  }
}
MOTION
Frames:	9
Frame Time:	0.0333333
0 0 0 0 0 -0 4.49045 91.9207 8.79211 88.9905 42.6905 -3.66477 15.7357 5.1072e-06 -5.51765e-07 152.785 86.8247 -150.652 8.98455 -0.406207 -4.3199e-07 -4.97089 5.40501 4.50703 16.3773 -1.3905e-06 -6.99897e-07 -7.21254 -19.672 7.11067 6.45672 -1.25837e-06 -1.02172e-07 5.59354 -31.2766 6.28727 12.9942 -0.242716 4.98039 -90.4601 2.28918 -93.633 5.34809 -7.22636e-06 -6.2814e-07 -52.1808 -23.088 11.2157 24.3286 1.87007e-05 4.90208e-06 17.3837 26.4004 -35.149 22.2916 -9.88446e-07 4.63217e-06 20.4624 5.19689 2.79698 12.9945 -0.242716 -4.98039 90.1519 -1.62097 -99.6459 -5.34813 -1.25947e-06 -3.79883e-06 -62.1688 -55.0575 -60.2645 -24.3289 0.000322201 -8.65921e-06 -46.879 -62.5422 -50.2736 -22.2915 -0.000108084 -4.47941e-06 13.7786 5.1486 3.97609 -2.19248 -6.46944 -1.22534e-07 174.227 2.22566 -3.12597 39.0811 -6.73843e-06 -1.23785e-05 0.0587716 -0.182594 15.1678 40.9854 -6.48686e-06 -1.26872e-05 11.8581 13.902 -67.1951 11.7543 -2.30145e-07 3.05095e-06 -0.162562 0.170551 -16.5755 -2.19251 6.46944 -1.45247e-06 158.699 29.5804 -175.367 -39.0811 -0.00228153 -0.0401928 0.0790473 -0.319697 12.4558 -40.9854 7.72618e-06 5.99936e-06 6.21726 -29.7063 -22.9939 -11.7543 -5.6619e-06 -5.58687e-06 0.454253 -0.502007 -20.3424 
0 0 0 0 0 -0 4.52207 91.9093 8.84233 88.991 42.6557 -3.62809 15.7357 5.1072e-06 -5.51765e-07 152.894 86.8091 -150.788 8.98455 -0.406207 -4.3199e-07 -4.96702 5.44126 4.45432 16.3773 -1.3905e-06 -6.99897e-07 -7.40699 -19.6859 7.07122 6.45672 -1.25837e-06 -1.02172e-07 5.41914 -31.2632 6.32025 12.9942 -0.242716 4.98039 -90.4573 2.281 -93.6617 5.34809 -7.22636e-06 -6.2814e-07 -52.1459 -23.1292 11.179 24.3286 1.87007e-05 4.90208e-06 17.3921 26.4654 -35.1014 22.2916 -9.88446e-07 4.63217e-06 20.3711 5.19764 2.7784 12.9945 -0.242716 -4.98039 90.1511 -1.60841 -99.6339 -5.34813 -1.25947e-06 -3.79883e-06 -62.4027 -55.1758 -60.621 -24.3289 0.000322201 -8.65921e-06 -46.7022 -62.6439 -50.0728 -22.2915 -0.000108084 -4.47941e-06 13.8866 5.14866 3.97533 -2.19248 -6.46944 -1.22534e-07 174.228 2.17671 -3.06729 39.0811 -6.73843e-06 -1.23785e-05 0.0590622 -0.183223 15.2024 40.9854 -6.48686e-06 -1.26872e-05 11.8685 13.8958 -67.2578 11.7543 -2.30145e-07 3.05095e-06 -0.171245 0.179472 -16.5755 -2.19251 6.46944 -1.45247e-06 158.665 29.6357 -175.317 -39.0811 -0.00228153 -0.0401928 0.0790911 -0.319225 12.4737 -40.9854 7.72618e-06 5.99936e-06 6.27896 -29.703 -22.98 -11.7543 -5.6619e-06 -5.58687e-06 0.459697 -0.508441 -20.3893 
0 0 0 0 0 -0 4.54739 91.9008 8.87904 89.0148 42.6321 -3.62535 15.7357 5.1072e-06 -5.51765e-07 152.972 86.8092 -150.895 8.98455 -0.406207 -4.3199e-07 -4.97366 5.44838 4.39498 16.3773 -1.3905e-06 -6.99897e-07 -7.5938 -19.6919 7.03998 6.45672 -1.25837e-06 -1.02172e-07 5.22297 -31.2293 6.34833 12.9942 -0.242716 4.98039 -90.4612 2.30518 -93.6818 5.34809 -7.22636e-06 -6.2814e-07 -52.0532 -23.0844 11.1818 24.3286 1.87007e-05 4.90208e-06 17.3162 26.4328 -35.0068 22.2916 -9.88446e-07 4.63217e-06 20.3572 5.19843 2.75835 12.9945 -0.242716 -4.98039 90.1498 -1.6024 -99.6611 -5.34813 -1.25947e-06 -3.79883e-06 -62.6201 -55.3047 -60.8883 -24.3289 0.000322201 -8.65921e-06 -46.7617 -62.6236 -50.137 -22.2915 -0.000108084 -4.47941e-06 13.9435 5.14984 3.94706 -2.19248 -6.46944 -1.22534e-07 174.208 2.11995 -3.00553 39.0811 -6.73843e-06 -1.23785e-05 0.0588052 -0.182886 15.1849 40.9854 -6.48686e-06 -1.26872e-05 11.8799 13.9075 -67.2912 11.7543 -2.30145e-07 3.05095e-06 -0.167766 0.175764 -16.5754 -2.19251 6.46944 -1.45247e-06 158.628 29.7129 -175.294 -39.0811 -0.00228153 -0.0401928 0.0791136 -0.318866 12.4845 -40.9854 7.72618e-06 5.99936e-06 6.29679 -29.8167 -23.0211 -11.7543 -5.6619e-06 -5.58687e-06 0.450726 -0.497822 -20.3119 
0 0 0 0 0 -0 4.5835 91.8948 8.9142 89.0527 42.5922 -3.6448 15.7357 5.1072e-06 -5.51765e-07 153.177 86.805 -151.135 8.98455 -0.406207 -4.3199e-07 -4.98923 5.46983 4.32695 16.3773 -1.3905e-06 -6.99897e-07 -7.79301 -19.6985 7.00637 6.45672 -1.25837e-06 -1.02172e-07 5.0765 -31.1837 6.39187 12.9942 -0.242716 4.98039 -90.4544 2.2754 -93.7044 5.34809 -7.22636e-06 -6.2814e-07 -52.0382 -23.1105 11.1906 24.3286 1.87007e-05 4.90208e-06 17.3003 26.447 -34.9672 22.2916 -9.88446e-07 4.63217e-06 20.4044 5.19643 2.80848 12.9945 -0.242716 -4.98039 90.1469 -1.58393 -99.7017 -5.34813 -1.25947e-06 -3.79883e-06 -62.4189 -55.3694 -60.8239 -24.3289 0.000322201 -8.65921e-06 -46.4866 -62.5374 -49.8879 -22.2915 -0.000108084 -4.47941e-06 13.9137 5.14544 4.05238 -2.19248 -6.46944 -1.22534e-07 174.187 1.98204 -2.93344 39.0811 -6.73843e-06 -1.23785e-05 0.0577128 -0.179803 15.1254 40.9854 -6.48686e-06 -1.26872e-05 11.9105 14.0335 -67.3253 11.7543 -2.30145e-07 3.05095e-06 -0.170918 0.179036 -16.5754 -2.19251 6.46944 -1.45247e-06 158.59 29.7542 -175.284 -39.0811 -0.00228153 -0.0401928 0.0791775 -0.318844 12.4933 -40.9854 7.72618e-06 5.99936e-06 6.34492 -29.8554 -23.0213 -11.7543 -5.6619e-06 -5.58687e-06 0.451582 -0.498839 -20.3194 
0 0 0 0 0 -0 4.61026 91.9001 8.93625 89.0629 42.5756 -3.66661 15.7357 5.1072e-06 -5.51765e-07 153.36 86.8106 -151.334 8.98455 -0.406207 -4.3199e-07 -5.01192 5.47016 4.29766 16.3773 -1.3905e-06 -6.99897e-07 -7.97573 -19.7092 6.95811 6.45672 -1.25837e-06 -1.02172e-07 4.86978 -31.1664 6.38065 12.9942 -0.242716 4.98039 -90.4595 2.3034 -93.715 5.34809 -7.22636e-06 -6.2814e-07 -51.9913 -23.1456 11.2608 24.3286 1.87007e-05 4.90208e-06 17.3094 26.4157 -35.0116 22.2916 -9.88446e-07 4.63217e-06 20.2777 5.19577 2.82488 12.9945 -0.242716 -4.98039 90.1516 -1.62813 -99.6792 -5.34813 -1.25947e-06 -3.79883e-06 -62.5445 -55.4072 -60.9915 -24.3289 0.000322201 -8.65921e-06 -46.4165 -62.4507 -49.8409 -22.2915 -0.000108084 -4.47941e-06 13.8542 5.14553 4.04953 -2.19248 -6.46944 -1.22534e-07 174.179 1.90518 -2.86124 39.0811 -6.73843e-06 -1.23785e-05 0.0561158 -0.175955 14.9956 40.9854 -6.48686e-06 -1.26872e-05 11.9153 14.0946 -67.2957 11.7543 -2.30145e-07 3.05095e-06 -0.169386 0.177381 -16.5753 -2.19251 6.46944 -1.45247e-06 158.596 29.7888 -175.292 -39.0811 -0.00228153 -0.0401928 0.0790458 -0.319023 12.467 -40.9854 7.72618e-06 5.99936e-06 6.3115 -29.9936 -23.0067 -11.7543 -5.6619e-06 -5.58687e-06 0.452922 -0.500436 -20.3309 
0 0 0 0 0 -0 4.62516 91.9026 8.95297 89.0687 42.562 -3.6475 15.7357 5.1072e-06 -5.51765e-07 153.203 86.8182 -151.185 8.98455 -0.406207 -4.3199e-07 -5.00237 5.44973 4.28045 16.3773 -1.3905e-06 -6.99897e-07 -8.16317 -19.7307 6.90523 6.45672 -1.25837e-06 -1.02172e-07 4.71728 -31.1068 6.35141 12.9942 -0.242716 4.98039 -90.4606 2.31194 -93.7309 5.34809 -7.22636e-06 -6.2814e-07 -51.9944 -23.1799 11.3095 24.3286 1.87007e-05 4.90208e-06 17.3489 26.5136 -34.9845 22.2916 -9.88446e-07 4.63217e-06 20.3011 5.19608 2.81721 12.9945 -0.242716 -4.98039 90.1516 -1.64174 -99.7234 -5.34813 -1.25947e-06 -3.79883e-06 -62.6415 -55.4907 -61.1962 -24.3289 0.000322201 -8.65921e-06 -46.2727 -62.4588 -49.6964 -22.2915 -0.000108084 -4.47941e-06 13.8205 5.14681 4.0187 -2.19248 -6.46944 -1.22534e-07 174.174 1.8536 -2.77255 39.0811 -6.73843e-06 -1.23785e-05 0.0544657 -0.171391 14.9069 40.9854 -6.48686e-06 -1.26872e-05 11.9214 14.1373 -67.2813 11.7543 -2.30145e-07 3.05095e-06 -0.167835 0.17578 -16.5753 -2.19251 6.46944 -1.45247e-06 158.595 29.7989 -175.26 -39.0811 -0.00228153 -0.0401928 0.0786705 -0.318894 12.4127 -40.9854 7.72618e-06 5.99936e-06 6.36311 -30.1874 -22.9172 -11.7543 -5.6619e-06 -5.58687e-06 0.455209 -0.503142 -20.3506 
0 0 0 0 0 -0 4.64164 91.9154 8.95706 89.0238 42.5221 -3.57905 15.7357 5.1072e-06 -5.51765e-07 153.147 86.8049 -151.123 8.98455 -0.406207 -4.3199e-07 -4.98543 5.47045 4.29154 16.3773 -1.3905e-06 -6.99897e-07 -8.27076 -19.7543 6.90443 6.45672 -1.25837e-06 -1.02172e-07 4.53995 -31.0943 6.28034 12.9942 -0.242716 4.98039 -90.4594 2.30816 -93.7409 5.34809 -7.22636e-06 -6.2814e-07 -52.0516 -23.2227 11.2919 24.3286 1.87007e-05 4.90208e-06 17.2538 26.4797 -34.8593 22.2916 -9.88446e-07 4.63217e-06 20.2625 5.19672 2.80167 12.9945 -0.242716 -4.98039 90.1551 -1.6753 -99.7077 -5.34813 -1.25947e-06 -3.79883e-06 -62.6303 -55.5042 -61.2419 -24.3289 0.000322201 -8.65921e-06 -46.2094 -62.3756 -49.6551 -22.2915 -0.000108084 -4.47941e-06 13.8879 5.14647 4.02801 -2.19248 -6.46944 -1.22534e-07 174.2 1.79592 -2.65498 39.0811 -6.73843e-06 -1.23785e-05 0.052894 -0.167747 14.7676 40.9854 -6.48686e-06 -1.26872e-05 11.9164 14.163 -67.2276 11.7543 -2.30145e-07 3.05095e-06 -0.162726 0.170423 -16.5755 -2.19251 6.46944 -1.45247e-06 158.635 29.8028 -175.247 -39.0811 -0.00228153 -0.0401928 0.07821 -0.318387 12.3672 -40.9854 7.72618e-06 5.99936e-06 6.62215 -30.1642 -22.7724 -11.7543 -5.6619e-06 -5.58687e-06 0.443262 -0.489018 -20.2477 
0 0 0 0 0 -0 4.65771 91.9207 8.95504 88.9967 42.4422 -3.50251 15.7357 5.1072e-06 -5.51765e-07 152.923 86.7956 -150.897 8.98455 -0.406207 -4.3199e-07 -4.95479 5.47604 4.29444 16.3773 -1.3905e-06 -6.99897e-07 -8.34777 -19.7338 6.90771 6.45672 -1.25837e-06 -1.02172e-07 4.5156 -31.075 6.28392 12.9942 -0.242716 4.98039 -90.4591 2.30008 -93.7089 5.34809 -7.22636e-06 -6.2814e-07 -52.1114 -23.2467 11.2919 24.3286 1.87007e-05 4.90208e-06 17.1528 26.4308 -34.7378 22.2916 -9.88446e-07 4.63217e-06 20.2626 5.19915 2.74059 12.9945 -0.242716 -4.98039 90.1554 -1.68769 -99.7394 -5.34813 -1.25947e-06 -3.79883e-06 -62.8862 -55.5439 -61.5168 -24.3289 0.000322201 -8.65921e-06 -46.0541 -62.3524 -49.5078 -22.2915 -0.000108084 -4.47941e-06 13.8975 5.14594 4.04035 -2.19248 -6.46944 -1.22534e-07 174.2 1.78049 -2.54283 39.0811 -6.73843e-06 -1.23785e-05 0.0517515 -0.164707 14.6795 40.9854 -6.48686e-06 -1.26872e-05 11.905 14.0936 -67.185 11.7543 -2.30145e-07 3.05095e-06 -0.163526 0.171037 -16.5755 -2.19251 6.46944 -1.45247e-06 158.639 29.7091 -175.242 -39.0811 -0.00228153 -0.0401928 0.0783487 -0.319095 12.3671 -40.9854 7.72618e-06 5.99936e-06 6.67955 -30.1923 -22.6492 -11.7543 -5.6619e-06 -5.58687e-06 0.447636 -0.494199 -20.2855 
0 0 0 0 0 -0 4.66322 91.9305 8.94733 88.9366 42.4124 -3.40806 15.7357 5.1072e-06 -5.51765e-07 152.863 86.7927 -150.826 8.98455 -0.406207 -4.3199e-07 -4.94675 5.47707 4.31638 16.3773 -1.3905e-06 -6.99897e-07 -8.33171 -19.7469 6.90956 6.45672 -1.25837e-06 -1.02172e-07 4.50527 -31.0934 6.29321 12.9942 -0.242716 4.98039 -90.4616 2.31646 -93.7281 5.34809 -7.22636e-06 -6.2814e-07 -52.1201 -23.1834 11.2929 24.3286 1.87007e-05 4.90208e-06 17.0286 26.3837 -34.5753 22.2916 -9.88446e-07 4.63217e-06 20.1955 5.19961 2.72933 12.9945 -0.242716 -4.98039 90.1553 -1.67178 -99.6924 -5.34813 -1.25947e-06 -3.79883e-06 -63.0597 -55.5051 -61.7112 -24.3289 0.000322201 -8.65921e-06 -46.0642 -62.4194 -49.5006 -22.2915 -0.000108084 -4.47941e-06 13.858 5.15348 3.86002 -2.19248 -6.46944 -1.22534e-07 174.235 1.79717 -2.45724 39.0811 -6.73843e-06 -1.23785e-05 0.0509129 -0.162225 14.6175 40.9854 -6.48686e-06 -1.26872e-05 11.8955 14.0631 -67.1474 11.7543 -2.30145e-07 3.05095e-06 -0.163639 0.171141 -16.5755 -2.19251 6.46944 -1.45247e-06 158.633 29.7453 -175.23 -39.0811 -0.00228153 -0.0401928 0.0789713 -0.320532 12.4208 -40.9854 7.72618e-06 5.99936e-06 6.64356 -30.1322 -22.6119 -11.7543 -5.6619e-06 -5.58687e-06 0.442845 -0.488535 -20.2441 
